<svg xmlns="http://www.w3.org/2000/svg" viewBox="55 8.672 103.914 41.992">
  <defs>
    <style>
      .cls-1 {
        fill: #f28f16;
      }

      .cls-2 {
        fill: #5c5f65;
      }

      .cls-3 {
        fill: #5c5e65;
      }

      .cls-4 {
        fill: #52555c;
      }

      .cls-5 {
        fill: #7e818a;
      }

      .cls-6 {
        fill: #747880;
      }

      .cls-7 {
        fill: #f4bd37;
      }

      .cls-8 {
        fill: #e4eaf5;
      }

      .cls-9 {
        fill: #d7dfef;
      }
    </style>
  </defs>
  <g id="Group_6" data-name="Group 6" transform="translate(54.9 8.672)">
    <g id="Group_1" data-name="Group 1" transform="translate(0.1)">
      <ellipse id="Ellipse_1" data-name="Ellipse 1" class="cls-1" cx="1.104" cy="1.868" rx="1.104" ry="1.868" transform="translate(18.584 11.345) rotate(-39.47)"/>
      <path id="Path_1" data-name="Path 1" class="cls-1" d="M24.38,5.306,16.315.637a6.114,6.114,0,0,0-5.433,0L2.817,5.306A6.017,6.017,0,0,0,.1,10.018v9.3a6.017,6.017,0,0,0,2.717,4.712L10.882,28.7a6.114,6.114,0,0,0,5.433,0l8.065-4.669A6.017,6.017,0,0,0,27.1,19.314v-9.3A6.017,6.017,0,0,0,24.38,5.306Zm-7.6,5.348c-.085.17-.127.552-.34,1.273-.085.042-.764-.552-.849-.637-.127-.085-.467-1.486-1.316-3.014a14.538,14.538,0,0,0-2.25-2.886S15.254,2.971,16.782,10.655Zm-6.41-5.815c3.566,1.783,5.306,7.556,5.348,8.065-3.353.722-3.735,2.292-4.584,2.632S7.783,12.48,7.656,12.013C6.043,9.381,6.637,3.141,10.372,4.839Zm-.424,20.8a6.871,6.871,0,0,1-.424-4.712,17.528,17.528,0,0,0,2.335,2.08,23.772,23.772,0,0,0,3.311,1.571S13.811,26.106,9.948,25.639Zm6.41-1.868c-4.839-1.571-6.664-4.2-6.707-4.372a4.306,4.306,0,0,1,1.868-3.353,13.828,13.828,0,0,0,2.8,2.5c1.146.594,3.566,1.783,3.566,1.783S17.631,23.219,16.358,23.771Zm1.316-7.9c-.127.255-.042,2.929-.085,2.971a10.889,10.889,0,0,1-4.839-3.4,4.919,4.919,0,0,1,3.523-1.825c.637-.042.424.424.849.891a11.237,11.237,0,0,0,1.1.934A1.229,1.229,0,0,0,17.674,15.876Zm5.476-1.146c-.722,1.189-3.226.976-4.669.085a3.592,3.592,0,0,1-.976-4.457,1.36,1.36,0,0,1,1.189-.722l-.255-1.061s-.212-.679.3-.722c.127,0,2.5-.17,2.5-.17s.382.042.424.34a.507.507,0,0,1-.255.467s-2,.085-2.165.17c-.127.085.212.891.255,1.061.042,0,.085.042.127.042a2.519,2.519,0,0,1,1.273-.3c.17.042,1.783.467,1.783.467a.447.447,0,0,1,.127.467.374.374,0,0,1-.34.3l-1.7-.467v.042c.127.085.255.127.382.212C22.513,11.334,23.871,13.5,23.149,14.73Z" transform="translate(-0.1)"/>
    </g>
    <g id="Group_2" data-name="Group 2" transform="translate(30.238 5.306)">
      <path id="Path_2" data-name="Path 2" class="cls-1" d="M73.18,18.74c.509-.127,1.019-.255,1.571-.34a10.113,10.113,0,0,1,4.5.3,7.533,7.533,0,0,1,2.5,1.358,6.648,6.648,0,0,1,1.74,2.377,8.557,8.557,0,0,1,.679,3.438,7.988,7.988,0,0,1-.552,3.056,6.628,6.628,0,0,1-1.571,2.42,7.185,7.185,0,0,1-2.5,1.571,9.032,9.032,0,0,1-3.311.552,16.628,16.628,0,0,1-5.136-.807V12.5h2.08Zm8.787,7.216a5.71,5.71,0,0,0-1.571-4.33A5.849,5.849,0,0,0,76.151,20.1a6.142,6.142,0,0,0-1.486.17c-.509.127-1.019.255-1.486.382V31.262a10.572,10.572,0,0,0,1.571.382,10.819,10.819,0,0,0,1.655.085,5.212,5.212,0,0,0,4.075-1.613A5.62,5.62,0,0,0,81.967,25.956Z" transform="translate(-71.1 -12.5)"/>
      <path id="Path_3" data-name="Path 3" class="cls-1" d="M117.647,39.147a7.968,7.968,0,0,1-2.42,1.74,8.7,8.7,0,0,1-3.311.594,7.971,7.971,0,0,1-3.141-.594,6.889,6.889,0,0,1-2.25-1.655,6.757,6.757,0,0,1-1.358-2.42,9.077,9.077,0,0,1-.467-2.844,9.427,9.427,0,0,1,.552-3.438,6.309,6.309,0,0,1,1.486-2.42,6.673,6.673,0,0,1,2.165-1.443,7.562,7.562,0,0,1,2.589-.467,6.021,6.021,0,0,1,4.966,2.038,8.892,8.892,0,0,1,1.613,5.9H106.822a5.851,5.851,0,0,0,1.486,4.033,4.773,4.773,0,0,0,3.735,1.486,5.941,5.941,0,0,0,2.377-.424,5.559,5.559,0,0,0,1.953-1.4Zm-1.655-6.792a4.689,4.689,0,0,0-.3-1.74,3.312,3.312,0,0,0-.807-1.358,4.056,4.056,0,0,0-1.358-.934,5.784,5.784,0,0,0-3.905,0,3.288,3.288,0,0,0-1.316.891,5.79,5.79,0,0,0-.891,1.358,6.175,6.175,0,0,0-.509,1.783Z" transform="translate(-90.437 -20.385)"/>
    </g>
    <g id="Group_3" data-name="Group 3" transform="translate(59.146 5.306)">
      <path id="Path_4" data-name="Path 4" class="cls-1" d="M139.2,33.469V12.5h8.32a5.978,5.978,0,0,1,2.292.467,5.223,5.223,0,0,1,1.868,1.273,7.5,7.5,0,0,1,1.273,1.91,5.978,5.978,0,0,1,.467,2.292A4.876,4.876,0,0,1,153,20.48a6.205,6.205,0,0,1-1.061,1.783,5.887,5.887,0,0,1,1.91,2.165,6.031,6.031,0,0,1,.679,2.886,5.891,5.891,0,0,1-.509,2.42,6.4,6.4,0,0,1-1.358,2,6.224,6.224,0,0,1-4.415,1.783H139.2Zm3.226-17.743V20.99h5.136a2.609,2.609,0,0,0,2.632-2.632,2.432,2.432,0,0,0-.764-1.868,2.744,2.744,0,0,0-1.868-.764Zm0,14.517h5.858a2.848,2.848,0,0,0,1.189-.255,3.243,3.243,0,0,0,.976-.722,3.294,3.294,0,0,0,.679-1.019,3.045,3.045,0,0,0,.255-1.231,2.549,2.549,0,0,0-.891-2.038,3.213,3.213,0,0,0-2.165-.764h-5.858v6.028Z" transform="translate(-139.2 -12.5)"/>
      <path id="Path_5" data-name="Path 5" class="cls-1" d="M191.089,39.147a7.056,7.056,0,0,1-2.42,1.74,8.7,8.7,0,0,1-3.311.594,8.038,8.038,0,0,1-3.184-.594,6.889,6.889,0,0,1-2.25-1.655,6.757,6.757,0,0,1-1.358-2.42,9.077,9.077,0,0,1-.467-2.844,9.427,9.427,0,0,1,.552-3.438,6.309,6.309,0,0,1,1.486-2.42,6.673,6.673,0,0,1,2.165-1.443,7.62,7.62,0,0,1,2.632-.467,6,6,0,0,1,5.009,2.165c1.1,1.443,1.655,3.523,1.655,6.282H181.241a4.953,4.953,0,0,0,1.316,2.971,3.91,3.91,0,0,0,2.886,1.061,5.118,5.118,0,0,0,2.08-.467,6.126,6.126,0,0,0,1.953-1.486l1.91,2.038Zm-6.113-10.273a3.325,3.325,0,0,0-2.462.849,4.047,4.047,0,0,0-1.1,2.207h7.131a3.693,3.693,0,0,0-1.019-2.165A3.583,3.583,0,0,0,184.977,28.874Z" transform="translate(-161.588 -20.385)"/>
      <path id="Path_6" data-name="Path 6" class="cls-1" d="M225.689,39.147a7.056,7.056,0,0,1-2.42,1.74,8.7,8.7,0,0,1-3.311.594,8.038,8.038,0,0,1-3.184-.594,6.889,6.889,0,0,1-2.25-1.655,6.757,6.757,0,0,1-1.358-2.42,9.077,9.077,0,0,1-.467-2.844,9.427,9.427,0,0,1,.552-3.438,6.31,6.31,0,0,1,1.486-2.42,6.673,6.673,0,0,1,2.165-1.443,7.62,7.62,0,0,1,2.632-.467,6,6,0,0,1,5.009,2.165c1.146,1.443,1.655,3.523,1.655,6.282H215.841a4.953,4.953,0,0,0,1.316,2.971,3.91,3.91,0,0,0,2.886,1.061,5.118,5.118,0,0,0,2.08-.467,6.126,6.126,0,0,0,1.953-1.486l1.91,2.038Zm-6.113-10.273a3.325,3.325,0,0,0-2.462.849,4.047,4.047,0,0,0-1.1,2.207h7.131a3.693,3.693,0,0,0-1.019-2.165A3.583,3.583,0,0,0,219.577,28.874Z" transform="translate(-181.5 -20.385)"/>
    </g>
    <g id="Group_4" data-name="Group 4" transform="translate(59.358 29.926)">
      <path id="Path_7" data-name="Path 7" class="cls-2" d="M141.016,70.5v7.641h2.632v1.273H139.7V70.5Z" transform="translate(-139.7 -70.5)"/>
      <path id="Path_8" data-name="Path 8" class="cls-2" d="M156.248,81.169h-4.033a1.563,1.563,0,0,0,.467,1.1,1.406,1.406,0,0,0,1.019.424,1.51,1.51,0,0,0,.807-.212,4.031,4.031,0,0,0,.722-.849l1.1.594a2.488,2.488,0,0,1-.552.722,2.234,2.234,0,0,1-.594.509,2.534,2.534,0,0,1-1.486.382,2.625,2.625,0,0,1-2.037-.807,3.065,3.065,0,0,1-.764-2.165,3.247,3.247,0,0,1,.722-2.165,2.533,2.533,0,0,1,2-.807,2.386,2.386,0,0,1,1.953.807,3.1,3.1,0,0,1,.722,2.165Zm-1.358-1.061a1.307,1.307,0,0,0-1.74-.934,1.72,1.72,0,0,0-.382.212,1.144,1.144,0,0,0-.3.34,1.271,1.271,0,0,0-.17.424h2.589Z" transform="translate(-146.146 -74.759)"/>
      <path id="Path_9" data-name="Path 9" class="cls-2" d="M170.615,78.07h1.316v5.646h-1.316v-.594a2.47,2.47,0,0,1-3.651-.085,3.138,3.138,0,0,1-.764-2.165,3.1,3.1,0,0,1,.764-2.122,2.374,2.374,0,0,1,1.91-.849,2.467,2.467,0,0,1,1.783.807V78.07Zm-3.1,2.8a1.891,1.891,0,0,0,.424,1.316,1.429,1.429,0,0,0,1.1.509,1.4,1.4,0,0,0,1.146-.509,1.89,1.89,0,0,0,.424-1.316,1.963,1.963,0,0,0-.424-1.316,1.453,1.453,0,0,0-1.146-.509,1.369,1.369,0,0,0-1.1.509A2.316,2.316,0,0,0,167.516,80.871Z" transform="translate(-154.951 -74.759)"/>
      <path id="Path_10" data-name="Path 10" class="cls-2" d="M183.5,78.127h1.316v.509a2.732,2.732,0,0,1,.637-.509,1.617,1.617,0,0,1,.679-.127,2.082,2.082,0,0,1,1.061.34l-.594,1.189a1.246,1.246,0,0,0-.722-.255c-.722,0-1.061.552-1.061,1.613v2.929H183.5Z" transform="translate(-164.908 -74.816)"/>
      <path id="Path_11" data-name="Path 11" class="cls-2" d="M194.4,78.07h1.316v.509a2.1,2.1,0,0,1,1.528-.679,1.955,1.955,0,0,1,1.528.637,2.617,2.617,0,0,1,.467,1.7v3.438h-1.316V80.532a2.362,2.362,0,0,0-.212-1.146.963.963,0,0,0-.807-.34,1.044,1.044,0,0,0-.934.424,3.1,3.1,0,0,0-.255,1.486v2.717H194.4Z" transform="translate(-171.181 -74.759)"/>
      <path id="Path_12" data-name="Path 12" class="cls-2" d="M209.2,71.649a.87.87,0,0,1,.849-.849.849.849,0,1,1-.594,1.443A.838.838,0,0,1,209.2,71.649Zm1.486,2.335v5.646H209.37V73.984Z" transform="translate(-179.698 -70.673)"/>
      <path id="Path_13" data-name="Path 13" class="cls-2" d="M216.6,78.07h1.316v.509a2.1,2.1,0,0,1,1.528-.679,1.955,1.955,0,0,1,1.528.637,2.617,2.617,0,0,1,.467,1.7v3.438h-1.273V80.532a2.362,2.362,0,0,0-.212-1.146.963.963,0,0,0-.807-.34,1.044,1.044,0,0,0-.934.424,3.1,3.1,0,0,0-.255,1.486v2.717h-1.316v-5.6Z" transform="translate(-183.957 -74.759)"/>
      <path id="Path_14" data-name="Path 14" class="cls-2" d="M237.046,83.546a3.882,3.882,0,0,1-.042.722,2.151,2.151,0,0,1-.085.552,2.1,2.1,0,0,1-.552,1.1,2.577,2.577,0,0,1-2.08.891,2.978,2.978,0,0,1-1.868-.594,2.3,2.3,0,0,1-.849-1.74h1.316a1.112,1.112,0,0,0,.255.637,1.425,1.425,0,0,0,1.189.509c.934,0,1.443-.594,1.443-1.74v-.849a2.489,2.489,0,0,1-1.783.807,2.36,2.36,0,0,1-1.868-.849,3,3,0,0,1-.722-2.122,3.147,3.147,0,0,1,.679-2.08,2.437,2.437,0,0,1,1.953-.891,2.214,2.214,0,0,1,1.783.807V78.07h1.316v5.476Zm-1.231-2.674a1.891,1.891,0,0,0-.424-1.316,1.453,1.453,0,0,0-1.146-.509,1.27,1.27,0,0,0-1.146.552,2.314,2.314,0,0,0,0,2.547,1.492,1.492,0,0,0,1.146.552,1.4,1.4,0,0,0,1.189-.552A2.063,2.063,0,0,0,235.815,80.871Z" transform="translate(-192.475 -74.759)"/>
    </g>
    <g id="Group_5" data-name="Group 5" transform="translate(46.213 29.873)">
      <path id="Path_15" data-name="Path 15" class="cls-3" d="M113.115,81.453c1.443.552,3.735-.085,4.075-.891l-.679,1.825c-.467,1.189-2.25,1.613-4.075.891-1.825-.679-2.886-2.165-2.462-3.353l.679-1.825C110.356,78.949,111.672,80.944,113.115,81.453Z" transform="translate(-109.393 -74.82)"/>
      <path id="Path_16" data-name="Path 16" class="cls-4" d="M113.115,81.453l-.679,1.825c-1.825-.679-2.886-2.165-2.462-3.353l.679-1.825C110.356,78.949,111.672,80.944,113.115,81.453Z" transform="translate(-109.393 -74.82)"/>
      <path id="Path_17" data-name="Path 17" class="cls-5" d="M111.676,77.057l5.9,2.25a.3.3,0,0,1,.17.424l-.552,1.486a5.145,5.145,0,0,1-3.82.3A5.067,5.067,0,0,1,110.7,78.8l.552-1.486A.3.3,0,0,1,111.676,77.057Z" transform="translate(-109.865 -74.202)"/>
      <path id="Path_18" data-name="Path 18" class="cls-6" d="M111.734,77.056l2.971,1.1-1.231,3.311a5.067,5.067,0,0,1-2.674-2.717l.552-1.486A.25.25,0,0,1,111.734,77.056Z" transform="translate(-109.923 -74.201)"/>
      <path id="Path_19" data-name="Path 19" class="cls-3" d="M108.974,72.465l2.759,2.971a2.629,2.629,0,0,0,1.061.722,2.587,2.587,0,0,0,1.273.17L118.1,75.9a.983.983,0,0,0,.594-1.655h0l-2.759-2.971a2.952,2.952,0,0,0-1.061-.722,2.991,2.991,0,0,0-1.231-.17l-4.033.382A1.047,1.047,0,0,0,108.974,72.465Z" transform="translate(-108.733 -70.374)"/>
      <path id="Path_20" data-name="Path 20" class="cls-7" d="M122.228,77.285a.3.3,0,0,1,.467-.085l2.929,2,.085.042a.342.342,0,0,1,.127.382l-1.443,3.863a.372.372,0,0,1-.424.212h0a.3.3,0,0,1-.17-.424l1.358-3.608-2.8-1.91C122.143,77.667,122.143,77.454,122.228,77.285Z" transform="translate(-116.469 -74.26)"/>
      <path id="Path_21" data-name="Path 21" class="cls-1" d="M122.224,77.285a.3.3,0,0,1,.467-.085l2.929,2-1.7,4.5a.3.3,0,0,1-.17-.424l1.358-3.608-2.8-1.91C122.14,77.667,122.14,77.454,122.224,77.285Z" transform="translate(-116.465 -74.26)"/>
      <path id="Path_22" data-name="Path 22" class="cls-1" d="M122.255,93.549l.679-1.825a.979.979,0,0,1,1.231-.594.957.957,0,0,1,.552,1.231l-.679,1.825a.35.35,0,0,1-.424.212l-1.189-.467A.258.258,0,0,1,122.255,93.549Z" transform="translate(-116.496 -82.289)"/>
      <path id="Path_23" data-name="Path 23" class="cls-1" d="M123.043,94.185l1.146-3.056a.98.98,0,0,0-1.231.594l-.679,1.825a.348.348,0,0,0,.17.424Z" transform="translate(-116.52 -82.289)"/>
      <path id="Path_24" data-name="Path 24" class="cls-4" d="M109.61,70.861l4.033-.382a2.423,2.423,0,0,1,1.231.17l-2.08,5.561a2.952,2.952,0,0,1-1.061-.722l-2.759-2.971A1.008,1.008,0,0,1,109.61,70.861Z" transform="translate(-108.733 -70.426)"/>
      <path id="Path_25" data-name="Path 25" class="cls-8" d="M118.22,74.821a1.136,1.136,0,0,1,1.528-.467,1.152,1.152,0,0,1,.849,1.358,1.122,1.122,0,0,1-1.528.467A1.085,1.085,0,0,1,118.22,74.821Z" transform="translate(-114.159 -72.602)"/>
      <path id="Path_26" data-name="Path 26" class="cls-9" d="M119.069,76.279l.679-1.825a1.136,1.136,0,0,0-1.528.467C118.008,75.43,118.39,76.024,119.069,76.279Z" transform="translate(-114.159 -72.66)"/>
    </g>
  </g>
</svg>
